ffmpeg version 3.4.8-0ubuntu0.2 Copyright (c) 2000-2020 the FFmpeg developers
  built with gcc 7 (Ubuntu 7.5.0-3ubuntu1~18.04)
  configuration: --prefix=/usr --extra-version=0ubuntu0.2 --toolchain=hardened --libdir=/usr/lib/x86_64-linux-gnu --incdir=/usr/include/x86_64-linux-gnu --enable-gpl --disable-stripping --enable-avresample --enable-avisynth --enable-gnutls --enable-ladspa --enable-libass --enable-libbluray --enable-libbs2b --enable-libcaca --enable-libcdio --enable-libflite --enable-libfontconfig --enable-libfreetype --enable-libfribidi --enable-libgme --enable-libgsm --enable-libmp3lame --enable-libmysofa --enable-libopenjpeg --enable-libopenmpt --enable-libopus --enable-libpulse --enable-librubberband --enable-librsvg --enable-libshine --enable-libsnappy --enable-libsoxr --enable-libspeex --enable-libssh --enable-libtheora --enable-libtwolame --enable-libvorbis --enable-libvpx --enable-libwavpack --enable-libwebp --enable-libx265 --enable-libxml2 --enable-libxvid --enable-libzmq --enable-libzvbi --enable-omx --enable-openal --enable-opengl --enable-sdl2 --enable-libdc1394 --enable-libdrm --enable-libiec61883 --enable-chromaprint --enable-frei0r --enable-libopencv --enable-libx264 --enable-shared
  libavutil      55. 78.100 / 55. 78.100
  libavcodec     57.107.100 / 57.107.100
  libavformat    57. 83.100 / 57. 83.100
  libavdevice    57. 10.100 / 57. 10.100
  libavfilter     6.107.100 /  6.107.100
  libavresample   3.  7.  0 /  3.  7.  0
  libswscale      4.  8.100 /  4.  8.100
  libswresample   2.  9.100 /  2.  9.100
  libpostproc    54.  7.100 / 54.  7.100
[rawvideo @ 0x5634bf3b0a20] Estimating duration from bitrate, this may be inaccurate
Input #0, rawvideo, from '../../SVC-Encoder-20220109T061506Z-001/SVC-Encoder/Dataset/RollerCoaster/ERP_8x8/tile_yuv/Tile_14_480x240.yuv':
  Duration: 00:00:10.00, start: 0.000000, bitrate: 41472 kb/s
    Stream #0:0: Video: rawvideo (I420 / 0x30323449), yuv420p, 480x240, 41472 kb/s, 30 tbr, 30 tbn, 30 tbc
Stream mapping:
  Stream #0:0 -> #0:0 (rawvideo (native) -> h264 (libx264))
Press [q] to stop, [?] for help
[libx264 @ 0x5634bf3bdc60] using cpu capabilities: MMX2 SSE2Fast LZCNT SSSE3 SSE4.2 AVX
[libx264 @ 0x5634bf3bdc60] profile High, level 2.1
Output #0, rawvideo, to 'RollerCoaster_Tile_14_480x240_x264_QP_24.h264':
  Metadata:
    encoder         : Lavf57.83.100
    Stream #0:0: Video: h264 (libx264), yuv420p, 480x240, q=-1--1, 30 fps, 30 tbn, 30 tbc
    Metadata:
      encoder         : Lavc57.107.100 libx264
    Side data:
      cpb: bitrate max/min/avg: 0/0/0 buffer size: 0 vbv_delay: -1
frame=  300 fps=0.0 q=30.0 LPSNR=Y:inf U:inf V:inf *:inf size=      11kB time=00:00:09.93 bitrate=   9.1kbits/s speed=38.9x    
video:11kB audio:0kB subtitle:0kB other streams:0kB global headers:0kB muxing overhead: 0.000000%
[libx264 @ 0x5634bf3bdc60] frame I:2     Avg QP:22.50  size:   854  PSNR Mean Y:55.68 U:58.29 V:60.02 Avg:56.52 Global:56.50
[libx264 @ 0x5634bf3bdc60] frame P:76    Avg QP:23.39  size:    84  PSNR Mean Y:54.01 U:56.45 V:59.83 Avg:54.94 Global:54.90
[libx264 @ 0x5634bf3bdc60] frame B:222   Avg QP:29.58  size:    15  PSNR Mean Y:54.07 U:56.42 V:59.72 Avg:54.98 Global:54.93
[libx264 @ 0x5634bf3bdc60] consecutive B-frames:  1.3%  0.0%  0.0% 98.7%
[libx264 @ 0x5634bf3bdc60] mb I  I16..4: 94.4%  5.6%  0.0%
[libx264 @ 0x5634bf3bdc60] mb P  I16..4:  3.1%  0.8%  0.0%  P16..4:  3.5%  0.1%  0.0%  0.0%  0.0%    skip:92.4%
[libx264 @ 0x5634bf3bdc60] mb B  I16..4:  0.0%  0.0%  0.0%  B16..8:  0.0%  0.0%  0.0%  direct: 0.0%  skip:100.0%  L0:56.4% L1:43.6% BI: 0.0%
[libx264 @ 0x5634bf3bdc60] 8x8 transform intra:14.9% inter:100.0%
[libx264 @ 0x5634bf3bdc60] coded y,uvDC,uvAC intra: 0.3% 8.3% 0.0% inter: 0.0% 0.1% 0.0%
[libx264 @ 0x5634bf3bdc60] i16 v,h,dc,p: 41% 45%  7%  7%
[libx264 @ 0x5634bf3bdc60] i8 v,h,dc,ddl,ddr,vr,hd,vl,hu:  3% 17% 80%  0%  0%  0%  0%  0%  0%
[libx264 @ 0x5634bf3bdc60] i8c dc,h,v,p: 81% 13%  5%  1%
[libx264 @ 0x5634bf3bdc60] Weighted P-Frames: Y:0.0% UV:0.0%
[libx264 @ 0x5634bf3bdc60] ref P L0: 90.2%  1.0%  5.7%  3.1%
[libx264 @ 0x5634bf3bdc60] ref B L1: 94.1%  5.9%
[libx264 @ 0x5634bf3bdc60] PSNR Mean Y:54.065 U:56.442 V:59.751 Avg:54.977 Global:54.934 kb/s:9.04
